<svg width="25" height="25" viewBox="0 0 25 25" fill="none" xmlns="http://www.w3.org/2000/svg">
<rect y="5.24666" width="20.2715" height="20.2715" rx="10.1358" transform="rotate(-15 0 5.24666)" fill="white"/>
<path d="M14.9674 16.0125L13.4792 16.4113L13.2805 15.6697L14.0272 15.4697L13.8285 14.7281L14.57 14.5294L14.37 13.7828L15.1115 13.5841L14.9128 12.8425L15.6544 12.6438L15.4557 11.9022L8.02984 13.892L7.73043 12.7745L15.1563 10.7848L14.9576 10.0432L14.216 10.2419L14.0173 9.50034L13.2757 9.69904L13.0757 8.95239L12.3341 9.1511L12.1354 8.40953L11.3888 8.60959L11.19 7.86802L12.6783 7.46925L12.877 8.21082L13.6185 8.01212L13.8172 8.75369L14.5588 8.55499L14.7589 9.30164L15.5055 9.10157L15.7042 9.84314L16.4458 9.64444L17.1426 12.245L16.4011 12.4437L16.5998 13.1853L15.8531 13.3853L16.0532 14.132L15.3116 14.3307L15.5103 15.0723L14.7687 15.271L14.9674 16.0125Z" fill="#4242FF"/>
</svg>
